<?xml version="1.0" standalone="no"?>
<!DOCTYPE svg PUBLIC "-//W3C//DTD SVG 20010904//EN"
 "http://www.w3.org/TR/2001/REC-SVG-20010904/DTD/svg10.dtd">
<svg version="1.0" xmlns="http://www.w3.org/2000/svg"
 width="1400.000000pt" height="980.000000pt" viewBox="0 0 1400.000000 980.000000"
 preserveAspectRatio="xMidYMid meet">

<g transform="translate(0.000000,980.000000) scale(0.100000,-0.100000)"
fill="#000000" stroke="none">
<path d="M0 4900 l0 -4900 155 0 155 0 0 4900 0 4900 -155 0 -155 0 0 -4900z"/>
<path d="M4390 4900 l0 -4900 285 0 285 0 0 1953 c0 2510 0 5613 0 6865 l0
982 -285 0 -285 0 0 -4900z"/>
<path d="M9040 8823 c0 -2183 0 -6920 0 -7840 l0 -983 285 0 285 0 0 4900 0
4900 -285 0 -285 0 0 -977z"/>
<path d="M13689 9343 c0 -252 -2 -2457 -5 -4900 l-4 -4443 160 0 160 0 0 4900
0 4900 -155 0 -155 0 -1 -457z"/>
<path d="M3035 9310 c0 -261 1 -368 2 -237 2 130 2 344 0 475 -1 130 -2 23 -2
-238z"/>
<path d="M7681 9754 c0 -11 3 -14 6 -6 3 7 2 16 -1 19 -3 4 -6 -2 -5 -13z"/>
<path d="M5884 9439 c-18 -5 -48 -27 -68 -49 -32 -36 -36 -46 -36 -94 0 -63
27 -109 80 -137 131 -70 269 70 204 207 -28 59 -113 94 -180 73z m116 -58 c34
-24 53 -82 39 -119 -34 -89 -141 -108 -199 -34 -25 31 -26 98 -4 131 36 51
111 61 164 22z"/>
<path d="M6602 9440 c-102 -24 -144 -159 -75 -240 67 -80 169 -80 236 -1 93
111 -16 275 -161 241z m81 -41 c69 -36 93 -98 61 -156 -31 -59 -95 -78 -154
-48 -77 40 -78 154 -1 195 42 22 64 24 94 9z"/>
<path d="M7318 9440 c-69 -21 -108 -73 -108 -146 0 -154 191 -210 278 -83 20
28 23 44 20 92 -4 49 -9 62 -38 92 -19 19 -50 40 -70 45 -40 11 -45 11 -82 0z
m88 -46 c88 -42 84 -167 -5 -204 -60 -25 -125 7 -150 72 -15 41 6 97 48 125
40 27 61 29 107 7z"/>
<path d="M8032 9440 c-130 -31 -149 -226 -28 -284 94 -44 204 12 221 114 5 32
2 51 -17 88 -34 68 -102 100 -176 82z m99 -53 c21 -14 39 -38 48 -63 12 -36
12 -44 -4 -77 -29 -62 -94 -83 -155 -52 -79 41 -78 159 2 198 45 22 69 21 109
-6z"/>
<path d="M6224 8840 c-33 -13 -81 -75 -88 -114 -10 -52 8 -99 55 -140 34 -32
45 -36 93 -36 64 0 112 28 139 80 37 72 2 176 -69 206 -37 15 -98 17 -130 4z
m142 -64 c28 -28 34 -42 34 -76 0 -34 -6 -48 -34 -76 -29 -29 -41 -34 -79 -34
-54 0 -91 26 -107 75 -25 75 28 144 109 145 36 0 49 -6 77 -34z"/>
<path d="M6930 8833 c-126 -65 -98 -251 42 -282 54 -12 99 4 140 48 35 37 38
45 38 101 0 57 -3 64 -38 102 -35 37 -45 42 -93 45 -39 3 -64 -1 -89 -14z
m130 -38 c18 -9 34 -30 45 -59 17 -43 17 -47 -2 -83 -22 -43 -53 -63 -100 -63
-70 0 -113 43 -113 116 0 28 8 44 34 70 38 38 86 45 136 19z"/>
<path d="M7643 8834 c-68 -34 -97 -124 -65 -196 68 -154 304 -94 289 73 -9
110 -123 172 -224 123z m147 -53 c52 -51 52 -111 0 -162 -23 -23 -37 -29 -72
-29 -50 0 -82 19 -104 62 -55 105 92 213 176 129z"/>
<path d="M9945 8310 c0 -250 1 -353 2 -227 2 125 2 329 0 455 -1 125 -2 22 -2
-228z"/>
<path d="M6585 8246 c-37 -16 -83 -68 -91 -102 -15 -59 12 -126 70 -168 38
-29 124 -29 162 0 51 38 68 70 68 129 0 58 -17 91 -66 128 -33 25 -104 31
-143 13z m114 -41 c37 -19 65 -77 57 -119 -14 -72 -104 -116 -165 -80 -32 19
-61 68 -61 104 0 81 94 134 169 95z"/>
<path d="M7293 8240 c-55 -25 -83 -70 -83 -135 0 -67 27 -111 87 -137 54 -24
100 -20 149 14 94 64 83 212 -20 259 -52 24 -80 23 -133 -1z m116 -34 c113
-59 53 -235 -72 -212 -62 12 -107 88 -86 144 27 72 95 100 158 68z"/>
<path d="M9945 7380 c0 -261 1 -368 2 -237 2 130 2 344 0 475 -1 130 -2 23 -2
-238z"/>
<path d="M477 7833 l163 -3 3 -463 2 -462 0 465 0 465 -165 0 -165 1 162 -3z"/>
<path d="M4998 7833 c6 -2 18 -2 25 0 6 3 1 5 -13 5 -14 0 -19 -2 -12 -5z"/>
<path d="M5098 7833 c34 -2 90 -2 125 0 34 2 6 3 -63 3 -69 0 -97 -1 -62 -3z"/>
<path d="M5295 7360 c0 -267 1 -376 2 -242 2 133 2 351 0 485 -1 133 -2 24 -2
-243z"/>
<path d="M9733 7833 c37 -2 96 -2 130 0 34 2 4 3 -68 3 -71 0 -99 -1 -62 -3z"/>
<path d="M6957 7655 c-168 -58 -129 -295 48 -295 45 0 85 20 119 60 21 26 26
42 26 87 0 64 -21 106 -65 132 -43 26 -84 31 -128 16z m88 -39 c84 -36 93
-161 13 -202 -49 -25 -96 -18 -134 20 -26 26 -34 42 -34 70 0 50 23 90 62 109
41 20 50 21 93 3z"/>
<path d="M9945 6415 c0 -253 1 -355 2 -227 2 128 2 335 0 460 -1 125 -2 20 -2
-233z"/>
<path d="M3035 5880 c0 -531 1 -748 2 -483 2 266 2 700 0 965 -1 266 -2 49 -2
-482z"/>
<path d="M10625 6400 c0 -245 1 -345 2 -222 2 122 2 322 0 445 -1 122 -2 22
-2 -223z"/>
<path d="M11985 6400 c0 -245 1 -345 2 -222 2 122 2 322 0 445 -1 122 -2 22
-2 -223z"/>
<path d="M12665 6400 c0 -245 1 -345 2 -222 2 122 2 322 0 445 -1 122 -2 22
-2 -223z"/>
<path d="M9942 5930 c0 -14 2 -19 5 -12 2 6 2 18 0 25 -3 6 -5 1 -5 -13z"/>
<path d="M12662 5930 c0 -14 2 -19 5 -12 2 6 2 18 0 25 -3 6 -5 1 -5 -13z"/>
<path d="M9941 5884 c0 -11 3 -14 6 -6 3 7 2 16 -1 19 -3 4 -6 -2 -5 -13z"/>
<path d="M398 5883 c45 -2 119 -2 165 0 45 1 8 3 -83 3 -91 0 -128 -2 -82 -3z"/>
<path d="M5063 5883 c43 -2 110 -2 150 0 40 1 5 3 -78 3 -82 0 -115 -2 -72 -3z"/>
<path d="M9703 5883 c42 -2 112 -2 155 0 42 1 7 3 -78 3 -85 0 -120 -2 -77 -3z"/>
<path d="M12661 5844 c0 -11 3 -14 6 -6 3 7 2 16 -1 19 -3 4 -6 -2 -5 -13z"/>
<path d="M11645 5365 c0 -247 1 -347 2 -222 2 126 2 328 0 450 -1 122 -2 20
-2 -228z"/>
<path d="M12665 5365 c0 -247 1 -347 2 -222 2 126 2 328 0 450 -1 122 -2 20
-2 -228z"/>
<path d="M7676 4905 c-3 -8 -1 -15 4 -15 6 0 10 7 10 15 0 8 -2 15 -4 15 -2 0
-6 -7 -10 -15z"/>
<path d="M10960 4910 c0 -6 -64 -11 -157 -13 l-158 -3 157 -2 158 -2 3 -477 2
-478 3 493 c1 270 0 492 -3 492 -3 0 -5 -4 -5 -10z"/>
<path d="M5981 4894 c0 -11 3 -14 6 -6 3 7 2 16 -1 19 -3 4 -6 -2 -5 -13z"/>
<path d="M1413 4893 c37 -2 96 -2 130 0 34 2 4 3 -68 3 -71 0 -99 -1 -62 -3z"/>
<path d="M2773 4893 c37 -2 96 -2 130 0 34 2 4 3 -68 3 -71 0 -99 -1 -62 -3z"/>
<path d="M6058 4893 c34 -2 90 -2 125 0 34 2 6 3 -63 3 -69 0 -97 -1 -62 -3z"/>
<path d="M7418 4893 c34 -2 90 -2 125 0 34 2 6 3 -63 3 -69 0 -97 -1 -62 -3z"/>
<path d="M7618 4893 c6 -2 18 -2 25 0 6 3 1 5 -13 5 -14 0 -19 -2 -12 -5z"/>
<path d="M12078 4893 c39 -2 105 -2 145 0 39 1 7 3 -73 3 -80 0 -112 -2 -72
-3z"/>
<path d="M12308 4893 c7 -3 16 -2 19 1 4 3 -2 6 -13 5 -11 0 -14 -3 -6 -6z"/>
<path d="M5985 4405 c0 -258 1 -366 2 -238 2 127 2 339 0 470 -1 131 -2 27 -2
-232z"/>
<path d="M2695 4400 c0 -245 1 -345 2 -223 2 123 2 323 0 445 -1 123 -2 23 -2
-222z"/>
<path d="M12325 3920 c0 -509 1 -717 2 -462 2 254 2 670 0 925 -1 254 -2 46
-2 -463z"/>
<path d="M8701 3914 c0 -11 3 -14 6 -6 3 7 2 16 -1 19 -3 4 -6 -2 -5 -13z"/>
<path d="M9942 3910 c0 -14 2 -19 5 -12 2 6 2 18 0 25 -3 6 -5 1 -5 -13z"/>
<path d="M353 3913 c9 -2 23 -2 30 0 6 3 -1 5 -18 5 -16 0 -22 -2 -12 -5z"/>
<path d="M583 3913 c9 -2 23 -2 30 0 6 3 -1 5 -18 5 -16 0 -22 -2 -12 -5z"/>
<path d="M1698 3913 c6 -2 18 -2 25 0 6 3 1 5 -13 5 -14 0 -19 -2 -12 -5z"/>
<path d="M4055 3455 c0 -258 1 -366 2 -238 2 127 2 339 0 470 -1 131 -2 27 -2
-232z"/>
<path d="M4148 3913 c46 -2 118 -2 160 0 42 1 5 3 -83 3 -88 0 -123 -2 -77 -3z"/>
<path d="M8793 3913 c42 -2 112 -2 155 0 42 1 7 3 -78 3 -85 0 -120 -2 -77 -3z"/>
<path d="M12698 3913 c7 -3 16 -2 19 1 4 3 -2 6 -13 5 -11 0 -14 -3 -6 -6z"/>
<path d="M12968 3913 c7 -3 16 -2 19 1 4 3 -2 6 -13 5 -11 0 -14 -3 -6 -6z"/>
<path d="M13438 3913 c46 -2 118 -2 160 0 42 1 5 3 -83 3 -88 0 -123 -2 -77
-3z"/>
<path d="M5985 3445 c0 -253 1 -355 2 -227 2 128 2 335 0 460 -1 125 -2 20 -2
-233z"/>
<path d="M8705 3445 c0 -247 1 -347 2 -222 2 126 2 328 0 450 -1 122 -2 20 -2
-228z"/>
<path d="M2695 3425 c0 -253 1 -355 2 -227 2 128 2 335 0 460 -1 125 -2 20 -2
-233z"/>
<path d="M9945 3435 c0 -247 1 -347 2 -222 2 126 2 328 0 450 -1 122 -2 20 -2
-228z"/>
<path d="M2340 2978 c-1 -13 -18 -108 -39 -213 l-38 -190 85 -3 c46 -2 86 -1
88 0 6 6 -81 428 -88 428 -5 0 -8 -10 -8 -22z"/>
<path d="M6990 2980 c0 -20 -66 -360 -76 -392 -5 -16 4 -18 86 -18 89 0 92 1
87 21 -3 12 -23 109 -44 215 -21 107 -41 194 -45 194 -5 0 -8 -9 -8 -20z"/>
<path d="M11606 2808 c-21 -106 -40 -203 -43 -215 -5 -22 -3 -23 81 -23 75 0
86 2 86 18 -1 22 -78 403 -83 408 -2 2 -21 -83 -41 -188z"/>
<path d="M4055 2465 c0 -286 1 -402 2 -257 2 145 2 379 0 520 -1 141 -2 23 -2
-263z"/>
<path d="M2691 2944 c0 -11 3 -14 6 -6 3 7 2 16 -1 19 -3 4 -6 -2 -5 -13z"/>
<path d="M13340 2941 c0 -6 4 -13 10 -16 6 -3 7 1 4 9 -7 18 -14 21 -14 7z"/>
<path d="M8705 2435 c0 -269 1 -378 2 -242 2 137 2 357 0 490 -1 133 -2 22 -2
-248z"/>
<path d="M11644 2285 c0 -137 2 -195 3 -128 2 67 2 179 0 250 -1 70 -3 16 -3
-122z"/>
<path d="M7656 2187 c-16 -84 -35 -179 -42 -212 -20 -90 -25 -85 71 -85 70 0
85 3 85 15 0 14 -76 406 -83 427 -1 4 -15 -61 -31 -145z"/>
<path d="M10961 2324 c-1 -12 -19 -113 -42 -224 -22 -111 -39 -203 -37 -205 4
-4 71 -7 130 -6 33 1 46 5 43 14 -2 6 -6 23 -9 37 -21 115 -68 351 -75 375 -7
23 -9 25 -10 9z"/>
<path d="M1668 2315 c-4 -11 -23 -105 -43 -208 -20 -103 -39 -195 -42 -203 -4
-12 11 -14 86 -14 l91 0 -6 33 c-4 17 -21 106 -40 197 -18 91 -34 176 -36 190
-3 23 -4 23 -10 5z"/>
<path d="M3016 2238 c-10 -51 -29 -148 -43 -216 -14 -68 -23 -125 -20 -128 7
-7 158 -6 165 1 5 5 -60 357 -77 413 -5 17 -11 -1 -25 -70z"/>
<path d="M6318 2320 c-9 -29 -78 -395 -78 -412 0 -16 11 -18 85 -18 47 0 85 3
84 8 -2 39 -88 433 -91 422z"/>
<path d="M12319 2300 c0 -19 -17 -118 -38 -220 -21 -102 -37 -186 -36 -188 4
-5 167 -4 172 1 6 6 -79 421 -88 432 -5 5 -9 -6 -10 -25z"/>
<path d="M4138 1963 c34 -2 90 -2 125 0 34 2 6 3 -63 3 -69 0 -97 -1 -62 -3z"/>
<path d="M8843 1963 c26 -2 68 -2 95 0 26 2 4 3 -48 3 -52 0 -74 -1 -47 -3z"/>
<path d="M13478 1963 c23 -2 61 -2 85 0 23 2 4 4 -43 4 -47 0 -66 -2 -42 -4z"/>
<path d="M10962 1845 c0 -16 2 -22 5 -12 2 9 2 23 0 30 -3 6 -5 -1 -5 -18z"/>
<path d="M952 1282 c-23 -119 -42 -219 -42 -222 0 -3 38 -5 85 -5 72 0 85 3
85 16 0 17 -79 421 -83 425 -1 2 -22 -95 -45 -214z"/>
<path d="M3673 1282 c-24 -119 -41 -217 -39 -219 6 -6 158 -5 163 1 4 4 -75
426 -81 433 0 1 -20 -96 -43 -215z"/>
<path d="M5602 1282 c-23 -119 -42 -219 -42 -222 0 -3 39 -4 87 -3 67 1 87 4
86 15 -5 33 -85 423 -87 425 -1 1 -21 -95 -44 -215z"/>
<path d="M8326 1297 c-21 -111 -40 -209 -43 -218 -4 -19 39 -26 123 -21 l51 4
-23 106 c-12 59 -32 157 -44 217 -12 61 -23 111 -24 112 0 1 -18 -89 -40 -200z"/>
<path d="M10280 1475 c0 -16 -15 -106 -34 -200 -19 -93 -36 -181 -38 -194 -3
-23 -2 -24 82 -23 76 0 85 2 84 18 0 11 -18 107 -39 214 -36 186 -55 249 -55
185z"/>
<path d="M13000 1469 c0 -19 -17 -118 -38 -221 l-38 -188 40 -1 c49 -1 130 2
133 5 5 4 -83 425 -90 432 -4 4 -7 -8 -7 -27z"/>
<path d="M6940 1019 c-237 -28 -389 -295 -301 -528 35 -90 108 -167 203 -212
66 -31 81 -34 158 -33 53 1 102 7 130 18 104 39 192 125 237 231 22 53 25 70
21 155 -5 105 -20 146 -77 218 -53 68 -71 82 -146 117 -75 36 -135 45 -225 34z"/>
<path d="M10963 960 c0 -25 2 -35 4 -22 2 12 2 32 0 45 -2 12 -4 2 -4 -23z"/>
<path d="M2691 974 c0 -11 3 -14 6 -6 3 7 2 16 -1 19 -3 4 -6 -2 -5 -13z"/>
<path d="M5981 974 c0 -11 3 -14 6 -6 3 7 2 16 -1 19 -3 4 -6 -2 -5 -13z"/>
<path d="M6662 960 c0 -19 2 -27 5 -17 2 9 2 25 0 35 -3 9 -5 1 -5 -18z"/>
<path d="M7675 980 c-3 -5 -1 -10 4 -10 6 0 11 5 11 10 0 6 -2 10 -4 10 -3 0
-8 -4 -11 -10z"/>
<path d="M3738 973 c7 -3 16 -2 19 1 4 3 -2 6 -13 5 -11 0 -14 -3 -6 -6z"/>
<path d="M5328 973 c7 -3 16 -2 19 1 4 3 -2 6 -13 5 -11 0 -14 -3 -6 -6z"/>
<path d="M10248 973 c7 -3 16 -2 19 1 4 3 -2 6 -13 5 -11 0 -14 -3 -6 -6z"/>
<path d="M11338 973 c7 -3 16 -2 19 1 4 3 -2 6 -13 5 -11 0 -14 -3 -6 -6z"/>
<path d="M11608 973 c7 -3 16 -2 19 1 4 3 -2 6 -13 5 -11 0 -14 -3 -6 -6z"/>
<path d="M2015 475 c0 -253 1 -355 2 -227 2 128 2 335 0 460 -1 125 -2 20 -2
-233z"/>
<path d="M12325 485 c0 -247 1 -347 2 -222 2 126 2 328 0 450 -1 122 -2 20 -2
-228z"/>
<path d="M655 480 c0 -245 1 -345 2 -223 2 123 2 323 0 445 -1 123 -2 23 -2
-222z"/>
<path d="M6661 384 c0 -11 3 -14 6 -6 3 7 2 16 -1 19 -3 4 -6 -2 -5 -13z"/>
<path d="M7341 374 c0 -11 3 -14 6 -6 3 7 2 16 -1 19 -3 4 -6 -2 -5 -13z"/>
<path d="M6664 170 c0 -85 2 -120 3 -78 2 43 2 113 0 156 -1 42 -3 7 -3 -78z"/>
</g>
</svg>
